<?xml version="1.0" encoding="UTF-8" standalone="no"?>
<!-- Created with Inkscape (http://www.inkscape.org/) -->

<svg
   width="1440"
   height="480"
   viewBox="0 0 381 127"
   version="1.1"
   id="svg5"
   inkscape:version="1.2.1 (9c6d41e4, 2022-07-14)"
   sodipodi:docname="banner.svg"
   xmlns:inkscape="http://www.inkscape.org/namespaces/inkscape"
   xmlns:sodipodi="http://sodipodi.sourceforge.net/DTD/sodipodi-0.dtd"
   xmlns="http://www.w3.org/2000/svg"
   xmlns:svg="http://www.w3.org/2000/svg">
  <sodipodi:namedview
     id="namedview7"
     pagecolor="#505050"
     bordercolor="#eeeeee"
     borderopacity="1"
     inkscape:showpageshadow="0"
     inkscape:pageopacity="0"
     inkscape:pagecheckerboard="0"
     inkscape:deskcolor="#505050"
     inkscape:document-units="px"
     showgrid="false"
     inkscape:zoom="0.49593903"
     inkscape:cx="642.21604"
     inkscape:cy="261.12081"
     inkscape:window-width="2006"
     inkscape:window-height="1227"
     inkscape:window-x="0"
     inkscape:window-y="25"
     inkscape:window-maximized="0"
     inkscape:current-layer="layer1" />
  <defs
     id="defs2">
    <inkscape:path-effect
       effect="skeletal"
       id="path-effect2829"
       is_visible="true"
       lpeversion="1"
       pattern="m 154.84653,-70.194519 c 1.29628,-0.0414 2.59258,-0.0828 3.88886,-0.124169 3.01309,-0.0713 6.02796,-0.01151 9.04191,0.02529 3.52844,0.0393 7.05684,0.0468 10.58517,0.0517 3.05002,0.0021 6.09996,-0.006 9.1498,-0.0232 2.73342,-0.02461 5.46741,0.01529 8.20111,0.0333 2.80776,0.01519 5.61531,0.0021 8.42275,-0.0186 2.71302,-0.02101 5.42585,-0.0544 8.13865,-0.0898 2.28412,-0.0294 4.56815,-0.0643 6.85207,-0.104029 1.82978,-0.033 3.65945,-0.0707 5.48912,-0.108619 1.02546,0.0684 2.4907,-32.674404 1.46526,-32.742804 v 0 c -1.82967,0.0381 -3.65934,0.0756 -5.48913,0.10864 -2.28392,0.0397 -4.56795,0.0746 -6.85208,0.10403 -2.71279,0.0354 -5.42563,0.0688 -8.13865,0.0898 -2.80743,0.0203 -5.61497,0.0338 -8.42273,0.0186 -2.73372,-0.018 -5.46769,-0.0578 -8.20113,-0.0333 -3.04983,0.0176 -6.09977,0.0257 -9.14979,0.0232 -3.52833,-0.005 -7.05672,-0.0124 -10.58517,-0.0517 -3.01396,-0.0368 -6.02881,-0.0965 -9.04192,-0.0253 -1.29628,0.0414 -2.59256,0.0828 -3.88885,0.12417 -1.02545,-0.0684 -2.49069,32.674402 -1.46525,32.742791 z"
       copytype="repeated_stretched"
       prop_scale="1"
       scale_y_rel="false"
       spacing="-10"
       normal_offset="0"
       tang_offset="0"
       prop_units="false"
       vertical_pattern="false"
       hide_knot="false"
       fuse_tolerance="100" />
    <inkscape:path-effect
       effect="skeletal"
       id="path-effect2804"
       is_visible="true"
       lpeversion="1"
       pattern="m 155.49329,-31.496668 c 0.85836,-0.01093 1.71672,-0.02188 2.57508,-0.03281 1.88,-0.02394 3.75999,-0.04791 5.63999,-0.07186 2.32152,-0.05093 4.64355,-0.01865 6.96539,0.0034 2.39637,0.01863 4.79253,0.03274 7.18861,0.08839 2.82843,0.07344 5.65733,0.113 8.4862,0.14171 3.30779,0.02925 6.61563,0.04249 9.92344,0.05032 3.0911,0.0065 6.18219,0.0046 9.27327,0.0013 2.44212,-0.0024 4.88425,-0.0071 7.32635,-0.01275 1.88975,-0.0043 3.77949,-0.01011 5.66922,-0.01786 1.76113,-0.0073 3.52222,-0.01855 5.28331,-0.03063 0.28113,-0.0019 0.56227,-0.0041 0.84342,-0.0059 1.0526,0.09223 3.2189,-34.087339 2.1663,-34.179564 v 0 c -0.28113,0.0019 -0.56227,0.0041 -0.84341,0.0059 -1.76109,0.01207 -3.52219,0.02335 -5.28331,0.03063 -1.88972,0.0078 -3.77947,0.01357 -5.66922,0.01785 -2.44211,0.0056 -4.88422,0.01042 -7.32635,0.01274 -3.09107,0.0033 -6.18216,0.0052 -9.27328,-0.0013 -3.30781,-0.0078 -6.61563,-0.02106 -9.92343,-0.05031 -2.82887,-0.0287 -5.65776,-0.06828 -8.48619,-0.141708 -2.39609,-0.05565 -4.79224,-0.06977 -7.18862,-0.08839 -2.32183,-0.02201 -4.64386,-0.05431 -6.96538,-0.0034 -1.88001,0.02395 -3.76001,0.04791 -5.64001,0.07186 -0.85836,0.01094 -1.71671,0.02187 -2.57507,0.03281 -1.0526,-0.09223 -3.2189,34.087338 -2.16631,34.179564 z"
       copytype="repeated_stretched"
       prop_scale="1"
       scale_y_rel="false"
       spacing="-10"
       normal_offset="0"
       tang_offset="0"
       prop_units="false"
       vertical_pattern="false"
       hide_knot="false"
       fuse_tolerance="100" />
    <inkscape:path-effect
       effect="skeletal"
       id="path-effect2777"
       is_visible="true"
       lpeversion="1"
       pattern="m 7.5739096,42.197661 c 0.568571,-0.01891 1.1371428,-0.03782 1.7057015,-0.05674 1.0076219,-0.03352 2.0152439,-0.06703 3.0228659,-0.100552 1.493728,-0.01304 2.987705,-0.002 4.48156,-0.0042 1.863554,-0.0034 3.726829,-0.03032 5.589989,-0.05952 2.249969,-0.03576 4.500803,-0.01677 6.751221,-0.01939 2.464502,0.0054 4.928439,-0.04189 7.392883,-0.03787 2.474969,0.01149 4.949785,0.02848 7.424644,0.0765 2.687948,0.06293 5.376185,0.079 8.064281,0.09206 2.561544,0.01051 5.122993,0.0049 7.684399,-0.004 2.112277,-0.007 4.22448,-0.02193 6.336617,-0.0408 1.981008,-0.01649 3.961753,-0.0485 5.942423,-0.08297 1.653136,-0.02963 3.306161,-0.06376 4.959154,-0.09846 1.108464,0.06929 2.65446,-34.3045402 1.545998,-34.3738336 v 0 c -1.653007,0.034694 -3.306033,0.068808 -4.959155,0.098462 -1.980682,0.034487 -3.961426,0.066485 -5.942435,0.082972 -2.112138,0.018878 -4.224328,0.03383 -6.336618,0.040799 -2.561394,0.00888 -5.122842,0.014477 -7.684385,0.00397 -2.688109,-0.013052 -5.376334,-0.029125 -8.064283,-0.092056 -2.47487,-0.048013 -4.949685,-0.065017 -7.424655,-0.076496 -2.464444,-0.00401 -4.928368,0.043264 -7.392884,0.037871 -2.250405,0.00261 -4.501239,-0.01637 -6.75122,0.019387 -1.863161,0.029187 -3.726434,0.056112 -5.58999,0.059516 -1.493842,0.00219 -2.987819,-0.00881 -4.481547,0.00421 -1.007621,0.033517 -2.015243,0.067035 -3.022866,0.1005522 -0.568571,0.018929 -1.1371417,0.037842 -1.7057013,0.056755 C 8.0114444,7.7545322 6.4654587,42.128366 7.5739096,42.197661 Z"
       copytype="repeated_stretched"
       prop_scale="1"
       scale_y_rel="false"
       spacing="-10"
       normal_offset="0"
       tang_offset="0"
       prop_units="false"
       vertical_pattern="false"
       hide_knot="false"
       fuse_tolerance="100" />
    <inkscape:path-effect
       effect="skeletal"
       id="path-effect2775"
       is_visible="true"
       lpeversion="1"
       pattern="m 7.5739096,42.197661 c 0.568571,-0.01891 1.1371428,-0.03782 1.7057015,-0.05674 1.0076219,-0.03352 2.0152439,-0.06703 3.0228659,-0.100552 1.493728,-0.01304 2.987705,-0.002 4.48156,-0.0042 1.863554,-0.0034 3.726829,-0.03032 5.589989,-0.05952 2.249969,-0.03576 4.500803,-0.01677 6.751221,-0.01939 2.464502,0.0054 4.928439,-0.04189 7.392883,-0.03787 2.474969,0.01149 4.949785,0.02848 7.424644,0.0765 2.687948,0.06293 5.376185,0.079 8.064281,0.09206 2.561544,0.01051 5.122993,0.0049 7.684399,-0.004 2.112277,-0.007 4.22448,-0.02193 6.336617,-0.0408 1.981008,-0.01649 3.961753,-0.0485 5.942423,-0.08297 1.653136,-0.02963 3.306161,-0.06376 4.959154,-0.09846 1.108464,0.06929 2.65446,-34.3045402 1.545998,-34.3738336 v 0 c -1.653007,0.034694 -3.306033,0.068808 -4.959155,0.098462 -1.980682,0.034487 -3.961426,0.066485 -5.942435,0.082972 -2.112138,0.018878 -4.224328,0.03383 -6.336618,0.040799 -2.561394,0.00888 -5.122842,0.014477 -7.684385,0.00397 -2.688109,-0.013052 -5.376334,-0.029125 -8.064283,-0.092056 -2.47487,-0.048013 -4.949685,-0.065017 -7.424655,-0.076496 -2.464444,-0.00401 -4.928368,0.043264 -7.392884,0.037871 -2.250405,0.00261 -4.501239,-0.01637 -6.75122,0.019387 -1.863161,0.029187 -3.726434,0.056112 -5.58999,0.059516 -1.493842,0.00219 -2.987819,-0.00881 -4.481547,0.00421 -1.007621,0.033517 -2.015243,0.067035 -3.022866,0.1005522 -0.568571,0.018929 -1.1371417,0.037842 -1.7057013,0.056755 C 8.0114444,7.7545322 6.4654587,42.128366 7.5739096,42.197661 Z"
       copytype="single_stretched"
       prop_scale="2"
       scale_y_rel="false"
       spacing="0"
       normal_offset="0"
       tang_offset="0"
       prop_units="false"
       vertical_pattern="false"
       hide_knot="false"
       fuse_tolerance="0" />
    <inkscape:path-effect
       effect="skeletal"
       id="path-effect2698"
       is_visible="true"
       lpeversion="1"
       pattern="m 7.5739096,42.197661 c 0.568571,-0.01891 1.1371428,-0.03782 1.7057015,-0.05674 1.0076219,-0.03352 2.0152439,-0.06703 3.0228659,-0.100552 1.493728,-0.01304 2.987705,-0.002 4.48156,-0.0042 1.863554,-0.0034 3.726829,-0.03032 5.589989,-0.05952 2.249969,-0.03576 4.500803,-0.01677 6.751221,-0.01939 2.464502,0.0054 4.928439,-0.04189 7.392883,-0.03787 2.474969,0.01149 4.949785,0.02848 7.424644,0.0765 2.687948,0.06293 5.376185,0.079 8.064281,0.09206 2.561544,0.01051 5.122993,0.0049 7.684399,-0.004 2.112277,-0.007 4.22448,-0.02193 6.336617,-0.0408 1.981008,-0.01649 3.961753,-0.0485 5.942423,-0.08297 1.653136,-0.02963 3.306161,-0.06376 4.959154,-0.09846 1.108464,0.06929 2.65446,-34.3045402 1.545998,-34.3738336 v 0 c -1.653007,0.034694 -3.306033,0.068808 -4.959155,0.098462 -1.980682,0.034487 -3.961426,0.066485 -5.942435,0.082972 -2.112138,0.018878 -4.224328,0.03383 -6.336618,0.040799 -2.561394,0.00888 -5.122842,0.014477 -7.684385,0.00397 -2.688109,-0.013052 -5.376334,-0.029125 -8.064283,-0.092056 -2.47487,-0.048013 -4.949685,-0.065017 -7.424655,-0.076496 -2.464444,-0.00401 -4.928368,0.043264 -7.392884,0.037871 -2.250405,0.00261 -4.501239,-0.01637 -6.75122,0.019387 -1.863161,0.029187 -3.726434,0.056112 -5.58999,0.059516 -1.493842,0.00219 -2.987819,-0.00881 -4.481547,0.00421 -1.007621,0.033517 -2.015243,0.067035 -3.022866,0.1005522 -0.568571,0.018929 -1.1371417,0.037842 -1.7057013,0.056755 C 8.0114444,7.7545322 6.4654587,42.128366 7.5739096,42.197661 Z"
       copytype="single_stretched"
       prop_scale="2"
       scale_y_rel="false"
       spacing="0"
       normal_offset="0"
       tang_offset="0"
       prop_units="false"
       vertical_pattern="false"
       hide_knot="false"
       fuse_tolerance="0" />
    <inkscape:path-effect
       effect="bend_path"
       id="path-effect2686"
       is_visible="true"
       lpeversion="1"
       bendpath="M 170.89434,81.527573 H 450.36145"
       prop_scale="1"
       scale_y_rel="false"
       vertical="false"
       hide_knot="false" />
    <inkscape:path-effect
       effect="bend_path"
       id="path-effect2674"
       is_visible="true"
       lpeversion="1"
       bendpath="M 154.824,-31.748719 H 420.96449"
       prop_scale="1"
       scale_y_rel="false"
       vertical="false"
       hide_knot="false" />
    <inkscape:path-effect
       effect="powerstroke"
       id="path-effect2641"
       is_visible="true"
       lpeversion="1"
       offset_points="0,4.9921384"
       not_jump="false"
       sort_points="true"
       interpolator_type="CubicBezierJohan"
       interpolator_beta="0.2"
       start_linecap_type="zerowidth"
       linejoin_type="extrp_arc"
       miter_limit="4"
       scale_width="1"
       end_linecap_type="zerowidth" />
    <inkscape:path-effect
       effect="skeletal"
       id="path-effect1126"
       is_visible="true"
       lpeversion="1"
       pattern="M 0,4.9921384 C 0,2.236478 2.236478,0 4.9921384,0 c 2.7556603,0 4.9921383,2.236478 4.9921383,4.9921384 0,2.7556603 -2.236478,4.9921383 -4.9921383,4.9921383 C 2.236478,9.9842767 0,7.7477987 0,4.9921384 Z"
       copytype="single_stretched"
       prop_scale="2"
       scale_y_rel="false"
       spacing="0"
       normal_offset="0"
       tang_offset="0"
       prop_units="false"
       vertical_pattern="false"
       hide_knot="false"
       fuse_tolerance="0" />
    <inkscape:path-effect
       effect="skeletal"
       id="path-effect1122"
       is_visible="true"
       lpeversion="1"
       pattern="M 0,4.9921384 C 0,2.236478 2.236478,0 4.9921384,0 c 2.7556603,0 4.9921383,2.236478 4.9921383,4.9921384 0,2.7556603 -2.236478,4.9921383 -4.9921383,4.9921383 C 2.236478,9.9842767 0,7.7477987 0,4.9921384 Z"
       copytype="single_stretched"
       prop_scale="2"
       scale_y_rel="false"
       spacing="0"
       normal_offset="0"
       tang_offset="0"
       prop_units="false"
       vertical_pattern="false"
       hide_knot="false"
       fuse_tolerance="0" />
    <inkscape:path-effect
       effect="spiro"
       id="path-effect1120"
       is_visible="true"
       lpeversion="1" />
    <inkscape:path-effect
       effect="skeletal"
       id="path-effect1116"
       is_visible="true"
       lpeversion="1"
       pattern="M 0,4.9921384 C 0,2.236478 2.236478,0 4.9921384,0 c 2.7556603,0 4.9921383,2.236478 4.9921383,4.9921384 0,2.7556603 -2.236478,4.9921383 -4.9921383,4.9921383 C 2.236478,9.9842767 0,7.7477987 0,4.9921384 Z"
       copytype="single_stretched"
       prop_scale="13.5"
       scale_y_rel="false"
       spacing="0"
       normal_offset="0"
       tang_offset="0"
       prop_units="false"
       vertical_pattern="false"
       hide_knot="false"
       fuse_tolerance="0" />
    <inkscape:path-effect
       effect="spiro"
       id="path-effect1114"
       is_visible="true"
       lpeversion="1" />
    <rect
       x="-35.067081"
       y="-80.153328"
       width="735.69305"
       height="104.48559"
       id="rect560" />
    <rect
       x="38.61544"
       y="401.99661"
       width="320.09366"
       height="109.57568"
       id="rect4234" />
    <inkscape:path-effect
       effect="fill_between_many"
       method="bsplinespiro"
       linkedpaths="#path2639,0,1"
       id="path-effect2643"
       is_visible="true"
       lpeversion="0"
       join="true"
       close="true"
       autoreverse="true" />
  </defs>
  <g
     inkscape:label="Layer 1"
     inkscape:groupmode="layer"
     id="layer1">
    <rect
       style="fill:#f9f9f9;fill-opacity:1;stroke-width:0.4382"
       id="rect4022"
       width="381"
       height="127"
       x="0"
       y="0"
       ry="0"
       rx="0" />
    <path
       style="fill:#f0d0c2;stroke-width:0.354535;-inkscape-stroke:none;stop-color:#000000"
       id="path4865"
       d="m 298.53957,6.1920798 c 0.0632,0.9674605 0.12635,1.9349284 0.18933,2.902389 0.14074,2.2782762 0.32128,4.5559462 0.41348,6.8349282 0.10137,2.78145 0.0212,5.564995 -0.0934,8.348518 -0.22258,3.007354 -0.41239,6.014473 -0.53912,9.0213 -0.12955,3.313825 -0.16934,6.626923 -0.19113,9.939806 -0.01,3.208195 0.0218,6.415929 0.0596,9.623595 0.0326,2.852671 0.097,5.704966 0.17493,8.557092 0.079,2.884941 0.18993,5.769467 0.30589,8.653916 0.12215,2.782124 0.25832,5.563954 0.28987,8.347226 0.0524,2.656606 0.014,5.314022 -0.0452,7.971724 -0.0566,2.473235 -0.0954,4.946306 -0.12755,7.419316 0.01,2.0474 -0.0606,4.095336 -0.15515,6.143571 -0.094,1.950389 -0.15094,3.900519 -0.20702,5.850609 -0.0456,1.7489 -0.0646,3.49747 -0.14395,5.24662 -0.14295,1.96732 -0.32644,3.9348 -0.49909,5.90224 -0.17114,0.70707 70.12647,1.35907 70.29762,0.65199 v 0 c 0.17274,-1.96743 0.35615,-3.9349 0.4991,-5.90223 0.0794,-1.74916 0.0984,-3.49772 0.14395,-5.24662 0.0562,-1.9501 0.11296,-3.90021 0.20702,-5.8506 0.0946,-2.048249 0.16574,-4.096194 0.15514,-6.143583 0.032,-2.473012 0.0708,-4.946089 0.12736,-7.419317 0.0596,-2.6577 0.0974,-5.315115 0.0452,-7.971725 -0.0318,-2.783267 -0.16774,-5.565101 -0.28987,-8.347225 -0.11596,-2.884456 -0.22704,-5.768975 -0.30589,-8.653916 -0.078,-2.852128 -0.14215,-5.704428 -0.17494,-8.557092 -0.038,-3.207666 -0.0704,-6.415408 -0.0596,-9.623594 0.0216,-3.31289 0.0614,-6.625989 0.19113,-9.939807 0.12675,-3.006835 0.31656,-6.013945 0.53912,-9.021306 0.11455,-2.783523 0.19453,-5.567061 0.0934,-8.348511 -0.0918,-2.278991 -0.27332,-4.556645 -0.41339,-6.8349302 -0.0632,-0.967468 -0.12635,-1.9349284 -0.18933,-2.9023962 0.17114,-0.7070776 -70.12645,-1.3590674 -70.2976,-0.6519889 z" />
    <g
       id="g2872"
       transform="translate(-24.007487,-33.076983)">
      <path
         style="fill:#554994;stroke:none;stroke-width:0.249894;stroke-opacity:1;stop-color:#000000"
         d="m 165.82831,136.51057 c 0.6269,-0.0189 1.2538,-0.0378 1.88068,-0.0567 1.11099,-0.0335 2.22198,-0.067 3.33297,-0.10055 1.64697,-0.013 3.2942,-0.002 4.94131,-0.004 2.05473,-0.003 4.10915,-0.0303 6.16344,-0.0595 2.48079,-0.0358 4.96252,-0.0168 7.4438,-0.0194 2.71733,0.005 5.43403,-0.0419 8.15129,-0.0379 2.72887,0.0115 5.45757,0.0285 8.18631,0.0765 2.96369,0.0629 5.92771,0.079 8.89156,0.0921 2.82433,0.0105 5.64854,0.005 8.47272,-0.004 2.32896,-0.007 4.65785,-0.0219 6.98666,-0.0408 2.18423,-0.0165 4.36817,-0.0485 6.55203,-0.083 1.82273,-0.0296 3.64533,-0.0638 5.4679,-0.0985 1.22217,0.0693 2.92677,-34.30454 1.70459,-34.37384 -1.82258,0.0347 -3.64518,0.0688 -5.46789,0.0985 -2.18387,0.0345 -4.36782,0.0665 -6.55205,0.083 -2.32881,0.0189 -4.65768,0.0338 -6.98666,0.0408 -2.82416,0.009 -5.64838,0.0145 -8.4727,0.004 -2.96387,-0.0131 -5.92787,-0.0291 -8.89157,-0.0921 -2.72875,-0.048 -5.45745,-0.065 -8.18632,-0.0765 -2.71726,-0.004 -5.43395,0.0433 -8.15129,0.0379 -2.48126,0.003 -4.963,-0.0164 -7.4438,0.0194 -2.05429,0.0292 -4.10871,0.0561 -6.16344,0.0595 -1.64709,0.002 -3.29433,-0.009 -4.94129,0.004 -1.11099,0.0335 -2.22198,0.067 -3.33297,0.10055 -0.6269,0.0189 -1.2538,0.0378 -1.88068,0.0567 -1.22218,-0.0693 -2.92676,34.30454 -1.7046,34.37384 23.29097,-0.0189 46.58195,-0.0378 69.87291,-0.0567 1.11099,-0.0335 2.22198,-0.067 3.33297,-0.10055 1.64696,-0.013 3.2942,-0.002 4.94131,-0.004 2.05472,-0.003 4.10915,-0.0303 6.16344,-0.0595 2.48078,-0.0358 4.96252,-0.0168 7.4438,-0.0194 2.71733,0.005 5.43403,-0.0419 8.15129,-0.0379 2.72887,0.0115 5.45756,0.0285 8.18631,0.0765 2.96369,0.0629 5.92771,0.079 8.89156,0.0921 2.82432,0.0105 5.64854,0.005 8.47271,-0.004 2.32897,-0.007 4.65786,-0.0219 6.98667,-0.0408 2.18423,-0.0165 4.36817,-0.0485 6.55203,-0.083 1.82273,-0.0296 3.64533,-0.0638 5.46789,-0.0985 1.22218,0.0693 2.92677,-34.30454 1.7046,-34.37384 -1.82258,0.0347 -3.64519,0.0688 -5.46789,0.0985 -2.18388,0.0345 -4.36782,0.0665 -6.55205,0.083 -2.32881,0.0189 -4.65769,0.0338 -6.98667,0.0408 -2.82415,0.009 -5.64837,0.0145 -8.47269,0.004 -2.96387,-0.0131 -5.92787,-0.0291 -8.89157,-0.0921 -2.72875,-0.048 -5.45745,-0.065 -8.18632,-0.0765 -2.71726,-0.004 -5.43395,0.0433 -8.15129,0.0379 -2.48126,0.003 -4.963,-0.0164 -7.4438,0.0194 -2.05429,0.0292 -4.10871,0.0561 -6.16344,0.0595 -1.64709,0.002 -3.29433,-0.009 -4.94129,0.004 -1.11099,0.0335 -2.22198,0.067 -3.33297,0.10055 -0.6269,0.0189 -1.2538,0.0378 -1.88069,0.0567 -1.22217,-0.0693 -2.92675,34.30454 -1.70459,34.37384 23.29097,-0.0189 46.58195,-0.0378 69.87291,-0.0567 1.11099,-0.0335 2.22198,-0.067 3.33297,-0.10055 1.64696,-0.013 3.2942,-0.002 4.9413,-0.004 2.05473,-0.003 4.10915,-0.0303 6.16345,-0.0595 2.48078,-0.0358 4.96252,-0.0168 7.4438,-0.0194 2.71732,0.005 5.43403,-0.0419 8.15129,-0.0379 2.72886,0.0115 5.45756,0.0285 8.18631,0.0765 2.96369,0.0629 5.9277,0.079 8.89156,0.0921 2.82432,0.0105 5.64854,0.005 8.47271,-0.004 2.32897,-0.007 4.65785,-0.0219 6.98667,-0.0408 2.18423,-0.0165 4.36817,-0.0485 6.55203,-0.083 1.82272,-0.0296 3.64533,-0.0638 5.46789,-0.0985 1.22218,0.0693 2.92677,-34.30454 1.7046,-34.37384 -1.82258,0.0347 -3.64519,0.0688 -5.4679,0.0985 -2.18387,0.0345 -4.36781,0.0665 -6.55204,0.083 -2.32882,0.0189 -4.65769,0.0338 -6.98667,0.0408 -2.82416,0.009 -5.64837,0.0145 -8.47269,0.004 -2.96388,-0.0131 -5.92787,-0.0291 -8.89157,-0.0921 -2.72876,-0.048 -5.45745,-0.065 -8.18632,-0.0765 -2.71726,-0.004 -5.43395,0.0433 -8.15129,0.0379 -2.48127,0.003 -4.963,-0.0164 -7.4438,0.0194 -2.0543,0.0292 -4.10872,0.0561 -6.16345,0.0595 -1.64709,0.002 -3.29432,-0.009 -4.94129,0.004 -1.11099,0.0335 -2.22198,0.067 -3.33297,0.10055 -0.62689,0.0189 -1.25379,0.0378 -1.88068,0.0567 -1.22217,-0.0693 -2.92676,34.30454 -1.70459,34.37384 23.29097,-0.0189 46.58195,-0.0378 69.87291,-0.0567 1.11099,-0.0335 2.22198,-0.067 3.33297,-0.10055 1.64696,-0.013 3.2942,-0.002 4.9413,-0.004 2.05473,-0.003 4.10915,-0.0303 6.16345,-0.0595 2.48078,-0.0358 4.96252,-0.0168 7.4438,-0.0194 2.71732,0.005 5.43403,-0.0419 8.15129,-0.0379 2.72886,0.0115 5.45756,0.0285 8.1863,0.0765 2.9637,0.0629 5.92771,0.079 8.89157,0.0921 2.82432,0.0105 5.64854,0.005 8.47271,-0.004 2.32897,-0.007 4.65785,-0.0219 6.98666,-0.0408 2.18424,-0.0165 4.36818,-0.0485 6.55204,-0.083 1.82272,-0.0296 3.64532,-0.0638 5.46789,-0.0985 1.22218,0.0693 2.92677,-34.30454 1.7046,-34.37384 -1.82259,0.0347 -3.64519,0.0688 -5.4679,0.0985 -2.18387,0.0345 -4.36781,0.0665 -6.55204,0.083 -2.32882,0.0189 -4.65769,0.0338 -6.98667,0.0408 -2.82416,0.009 -5.64837,0.0145 -8.4727,0.004 -2.96387,-0.0131 -5.92787,-0.0291 -8.89156,-0.0921 -2.72876,-0.048 -5.45745,-0.065 -8.18632,-0.0765 -2.71726,-0.004 -5.43395,0.0433 -8.15129,0.0379 -2.48127,0.003 -4.96301,-0.0164 -7.4438,0.0194 -2.0543,0.0292 -4.10872,0.0561 -6.16345,0.0595 -1.64709,0.002 -3.29433,-0.009 -4.94129,0.004 -1.11099,0.0335 -2.22198,0.067 -3.33297,0.10055 -0.6269,0.0189 -1.2538,0.0378 -1.88068,0.0567 -1.22218,-0.0693 -2.92676,34.30454 -1.7046,34.37384"
         id="path2765"
         inkscape:path-effect="#path-effect2777"
         inkscape:original-d="M 165.4069,119.15568 H 448.40165"
         class="UnoptimicedTransforms"
         transform="translate(-131.79642,-60.884783)" />
      <path
         style="fill:#f675a8;stroke:none;stroke-width:0.249894;stroke-opacity:1;stop-color:#000000"
         d="m 165.71575,136.21963 c 0.94294,-0.0109 1.88588,-0.0219 2.82881,-0.0328 2.06525,-0.0239 4.13048,-0.0479 6.19572,-0.0719 2.55027,-0.0509 5.10109,-0.0187 7.65171,0.003 2.63249,0.0186 5.26475,0.0327 7.89692,0.0884 3.10713,0.0734 6.21477,0.113 9.32238,0.14171 3.63371,0.0293 7.26748,0.0425 10.90122,0.0503 3.39568,0.007 6.79134,0.005 10.18699,0.001 2.68275,-0.002 5.36551,-0.007 8.04824,-0.0128 2.07595,-0.004 4.1519,-0.0101 6.22783,-0.0179 1.93466,-0.007 3.86927,-0.0186 5.80389,-0.0306 0.30883,-0.002 0.61767,-0.004 0.92652,-0.006 1.15632,0.0922 3.53607,-34.08734 2.37975,-34.17956 -0.30883,0.002 -0.61767,0.004 -0.92651,0.006 -1.93461,0.0121 -3.86924,0.0234 -5.80389,0.0306 -2.07592,0.008 -4.15187,0.0136 -6.22782,0.0178 -2.68274,0.006 -5.36548,0.0104 -8.04824,0.0127 -3.39564,0.003 -6.79131,0.005 -10.18701,-0.001 -3.63373,-0.008 -7.26748,-0.0211 -10.90121,-0.0503 -3.10761,-0.0287 -6.21524,-0.0683 -9.32236,-0.14171 -2.63219,-0.0556 -5.26443,-0.0698 -7.89694,-0.0884 -2.5506,-0.022 -5.10143,-0.0543 -7.6517,-0.003 -2.06525,0.0239 -4.13049,0.0479 -6.19573,0.0719 -0.94294,0.0109 -1.88587,0.0219 -2.8288,0.0328 -1.15632,-0.0922 -3.53607,34.08734 -2.37977,34.17957 l 0,0 c 23.61039,-0.0109 47.22079,-0.0219 70.83118,-0.0328 2.06524,-0.0239 4.13047,-0.0479 6.19571,-0.0719 2.55027,-0.0509 5.10109,-0.0187 7.65171,0.003 2.63249,0.0186 5.26475,0.0327 7.89693,0.0884 3.10712,0.0734 6.21476,0.113 9.32237,0.14171 3.63371,0.0293 7.26749,0.0425 10.90122,0.0503 3.39568,0.007 6.79134,0.005 10.187,0.001 2.68275,-0.002 5.36551,-0.007 8.04824,-0.0128 2.07595,-0.004 4.15189,-0.0101 6.22782,-0.0179 1.93466,-0.007 3.86928,-0.0186 5.80389,-0.0306 0.30883,-0.002 0.61767,-0.004 0.92653,-0.006 1.15631,0.0922 3.53606,-34.08734 2.37975,-34.17956 -0.30883,0.002 -0.61767,0.004 -0.92652,0.006 -1.93461,0.0121 -3.86924,0.0234 -5.80389,0.0306 -2.07592,0.008 -4.15187,0.0136 -6.22782,0.0178 -2.68274,0.006 -5.36548,0.0104 -8.04824,0.0127 -3.39564,0.003 -6.79131,0.005 -10.187,-0.001 -3.63374,-0.008 -7.26749,-0.0211 -10.90122,-0.0503 -3.10761,-0.0287 -6.21523,-0.0683 -9.32236,-0.14171 -2.63218,-0.0556 -5.26443,-0.0698 -7.89693,-0.0884 -2.55061,-0.022 -5.10144,-0.0543 -7.6517,-0.003 -2.06526,0.0239 -4.1305,0.0479 -6.19574,0.0719 -0.94294,0.0109 -1.88586,0.0219 -2.8288,0.0328 -1.15632,-0.0922 -3.53607,34.08734 -2.37976,34.17957 l 0,0 c 23.61039,-0.0109 47.22078,-0.0219 70.83117,-0.0328 2.06524,-0.0239 4.13047,-0.0479 6.19571,-0.0719 2.55027,-0.0509 5.1011,-0.0187 7.65172,0.003 2.63249,0.0186 5.26475,0.0327 7.89692,0.0884 3.10712,0.0734 6.21476,0.113 9.32237,0.14171 3.63372,0.0293 7.26749,0.0425 10.90123,0.0503 3.39567,0.007 6.79134,0.005 10.18699,0.001 2.68275,-0.002 5.36551,-0.007 8.04824,-0.0128 2.07595,-0.004 4.15189,-0.0101 6.22782,-0.0179 1.93466,-0.007 3.86928,-0.0186 5.80389,-0.0306 0.30883,-0.002 0.61768,-0.004 0.92653,-0.006 1.15631,0.0922 3.53607,-34.08734 2.37975,-34.17956 -0.30883,0.002 -0.61767,0.004 -0.92651,0.006 -1.93462,0.0121 -3.86925,0.0234 -5.80389,0.0306 -2.07592,0.008 -4.15188,0.0136 -6.22783,0.0178 -2.68274,0.006 -5.36548,0.0104 -8.04824,0.0127 -3.39564,0.003 -6.7913,0.005 -10.187,-0.001 -3.63374,-0.008 -7.26749,-0.0211 -10.90122,-0.0503 -3.1076,-0.0287 -6.21523,-0.0683 -9.32236,-0.14171 -2.63218,-0.0556 -5.26443,-0.0698 -7.89693,-0.0884 -2.55061,-0.022 -5.10144,-0.0543 -7.6517,-0.003 -2.06525,0.0239 -4.1305,0.0479 -6.19574,0.0719 -0.94294,0.0109 -1.88586,0.0219 -2.8288,0.0328 -1.15631,-0.0922 -3.53607,34.08734 -2.37976,34.17957 l 0,0 c 23.61039,-0.0109 47.22078,-0.0219 70.83117,-0.0328 2.06524,-0.0239 4.13048,-0.0479 6.19572,-0.0719 2.55026,-0.0509 5.10109,-0.0187 7.65171,0.003 2.63249,0.0186 5.26475,0.0327 7.89692,0.0884 3.10713,0.0734 6.21477,0.113 9.32237,0.14171 3.63372,0.0293 7.26749,0.0425 10.90123,0.0503 3.39568,0.007 6.79134,0.005 10.18699,0.001 2.68275,-0.002 5.36551,-0.007 8.04824,-0.0128 2.07595,-0.004 4.1519,-0.0101 6.22783,-0.0179 1.93466,-0.007 3.86927,-0.0186 5.80389,-0.0306 0.30883,-0.002 0.61767,-0.004 0.92652,-0.006 1.15632,0.0922 3.53607,-34.08734 2.37975,-34.17956 -0.30883,0.002 -0.61767,0.004 -0.92651,0.006 -1.93462,0.0121 -3.86924,0.0234 -5.80389,0.0306 -2.07592,0.008 -4.15187,0.0136 -6.22783,0.0178 -2.68273,0.006 -5.36547,0.0104 -8.04823,0.0127 -3.39565,0.003 -6.79131,0.005 -10.18701,-0.001 -3.63374,-0.008 -7.26749,-0.0211 -10.90121,-0.0503 -3.10761,-0.0287 -6.21524,-0.0683 -9.32236,-0.14171 -2.63219,-0.0556 -5.26444,-0.0698 -7.89694,-0.0884 -2.55061,-0.022 -5.10143,-0.0543 -7.6517,-0.003 -2.06525,0.0239 -4.13049,0.0479 -6.19574,0.0719 -0.94293,0.0109 -1.88586,0.0219 -2.8288,0.0328 -1.15631,-0.0922 -3.53606,34.08734 -2.37976,34.17957 l 0,0"
         id="path2800"
         inkscape:path-effect="#path-effect2804"
         inkscape:original-d="M 165.4069,119.15568 H 448.40165"
         class="UnoptimicedTransforms"
         transform="translate(-131.79642,-22.139433)" />
      <path
         style="fill:#f29393;stroke:none;stroke-width:0.249894;stroke-opacity:1;stop-color:#000000"
         d="m 165.7895,135.70615 c 1.42337,-0.0414 2.84677,-0.0828 4.27014,-0.12417 3.30851,-0.0713 6.61897,-0.0115 9.92842,0.0253 3.87438,0.0393 7.74872,0.0468 11.62298,0.0517 3.34905,0.002 6.69802,-0.006 10.04688,-0.0232 3.00142,-0.0246 6.00346,0.0153 9.00518,0.0333 3.08304,0.0152 6.16586,0.002 9.24855,-0.0186 2.97902,-0.021 5.95782,-0.0544 8.9366,-0.0898 2.50806,-0.0294 5.01603,-0.0643 7.52387,-0.10403 2.00918,-0.033 4.01824,-0.0707 6.0273,-0.10862 1.126,0.0684 2.73489,-32.67441 1.60892,-32.74281 -2.00906,0.0381 -4.01812,0.0756 -6.02731,0.10864 -2.50784,0.0397 -5.01581,0.0746 -7.52389,0.10403 -2.97876,0.0354 -5.95758,0.0688 -8.93659,0.0898 -3.08268,0.0203 -6.16549,0.0338 -9.24853,0.0186 -3.00174,-0.018 -6.00376,-0.0578 -9.0052,-0.0333 -3.34885,0.0176 -6.69782,0.0257 -10.04687,0.0232 -3.87426,-0.005 -7.74859,-0.0124 -11.62299,-0.0517 -3.30946,-0.0368 -6.61989,-0.0965 -9.92842,-0.0253 -1.42337,0.0414 -2.84675,0.0828 -4.27013,0.12417 -1.12599,-0.0684 -2.73489,32.67441 -1.60891,32.7428 24.09124,-0.0414 48.1825,-0.0828 72.27374,-0.12417 3.3085,-0.0713 6.61896,-0.0115 9.92841,0.0253 3.87439,0.0393 7.74872,0.0468 11.62299,0.0517 3.34905,0.002 6.69802,-0.006 10.04688,-0.0232 3.00141,-0.0246 6.00345,0.0153 9.00518,0.0333 3.08304,0.0152 6.16586,0.002 9.24855,-0.0186 2.97901,-0.021 5.95782,-0.0544 8.93659,-0.0898 2.50807,-0.0294 5.01603,-0.0643 7.52388,-0.10403 2.00918,-0.033 4.01824,-0.0707 6.02729,-0.10862 1.126,0.0684 2.7349,-32.67441 1.60892,-32.74281 -2.00906,0.0381 -4.01811,0.0756 -6.0273,0.10864 -2.50785,0.0397 -5.01581,0.0746 -7.52389,0.10403 -2.97876,0.0354 -5.95758,0.0688 -8.93659,0.0898 -3.08269,0.0203 -6.16549,0.0338 -9.24853,0.0186 -3.00175,-0.018 -6.00377,-0.0578 -9.0052,-0.0333 -3.34885,0.0176 -6.69782,0.0257 -10.04688,0.0232 -3.87426,-0.005 -7.74859,-0.0124 -11.62298,-0.0517 -3.30946,-0.0368 -6.6199,-0.0965 -9.92842,-0.0253 -1.42338,0.0414 -2.84675,0.0828 -4.27013,0.12417 -1.12599,-0.0684 -2.73489,32.67441 -1.60891,32.7428 24.09124,-0.0414 48.1825,-0.0828 72.27373,-0.12417 3.30851,-0.0713 6.61897,-0.0115 9.92842,0.0253 3.87438,0.0393 7.74872,0.0468 11.62298,0.0517 3.34906,0.002 6.69803,-0.006 10.04689,-0.0232 3.00141,-0.0246 6.00345,0.0153 9.00517,0.0333 3.08305,0.0152 6.16586,0.002 9.24855,-0.0186 2.97902,-0.021 5.95783,-0.0544 8.9366,-0.0898 2.50806,-0.0294 5.01603,-0.0643 7.52387,-0.10403 2.00918,-0.033 4.01824,-0.0707 6.0273,-0.10862 1.126,0.0684 2.7349,-32.67441 1.60892,-32.74281 -2.00906,0.0381 -4.01812,0.0756 -6.02731,0.10864 -2.50784,0.0397 -5.01581,0.0746 -7.52388,0.10403 -2.97876,0.0354 -5.95758,0.0688 -8.9366,0.0898 -3.08268,0.0203 -6.16548,0.0338 -9.24853,0.0186 -3.00174,-0.018 -6.00376,-0.0578 -9.0052,-0.0333 -3.34884,0.0176 -6.69781,0.0257 -10.04687,0.0232 -3.87426,-0.005 -7.74859,-0.0124 -11.62298,-0.0517 -3.30946,-0.0368 -6.6199,-0.0965 -9.92843,-0.0253 -1.42337,0.0414 -2.84674,0.0828 -4.27013,0.12417 -1.12598,-0.0684 -2.73488,32.67441 -1.6089,32.7428 24.09123,-0.0414 48.18249,-0.0828 72.27373,-0.12417 3.30851,-0.0713 6.61897,-0.0115 9.92842,0.0253 3.87438,0.0393 7.74872,0.0468 11.62298,0.0517 3.34906,0.002 6.69802,-0.006 10.04688,-0.0232 3.00142,-0.0246 6.00346,0.0153 9.00518,0.0333 3.08305,0.0152 6.16586,0.002 9.24855,-0.0186 2.97902,-0.021 5.95782,-0.0544 8.9366,-0.0898 2.50806,-0.0294 5.01603,-0.0643 7.52387,-0.10403 2.00918,-0.033 4.01824,-0.0707 6.0273,-0.10862 1.126,0.0684 2.7349,-32.67441 1.60892,-32.74281 -2.00906,0.0381 -4.01812,0.0756 -6.02731,0.10864 -2.50784,0.0397 -5.01581,0.0746 -7.52388,0.10403 -2.97877,0.0354 -5.95758,0.0688 -8.9366,0.0898 -3.08268,0.0203 -6.16548,0.0338 -9.24853,0.0186 -3.00174,-0.018 -6.00376,-0.0578 -9.0052,-0.0333 -3.34885,0.0176 -6.69782,0.0257 -10.04687,0.0232 -3.87426,-0.005 -7.74859,-0.0124 -11.62298,-0.0517 -3.30946,-0.0368 -6.6199,-0.0965 -9.92843,-0.0253 -1.42337,0.0414 -2.84675,0.0828 -4.27013,0.12417 -1.12599,-0.0684 -2.73489,32.67441 -1.60891,32.7428"
         id="path2825"
         inkscape:path-effect="#path-effect2829"
         inkscape:original-d="M 165.4069,119.15568 H 448.40165"
         class="UnoptimicedTransforms"
         transform="translate(-131.79642,15.801495)" />
    </g>
    <text
       xml:space="preserve"
       transform="matrix(0.26458333,0,0,0.26458333,7.9209569,-12.103197)"
       id="text4232"
       style="font-size:53.3333px;white-space:pre;shape-inside:url(#rect4234);display:inline;fill:#f9f9f9;fill-opacity:1"><tspan
         x="38.615234"
         y="450.65368"
         id="tspan2948"><tspan
           style="font-family:Futura;-inkscape-font-specification:Futura"
           id="tspan2946">kxs-ts-gen</tspan></tspan></text>
    <text
       xml:space="preserve"
       transform="matrix(0,0.31288665,-0.31288665,0,272.59501,22.454195)"
       id="text558"
       style="font-size:10px;font-family:Futura;-inkscape-font-specification:Futura;white-space:pre;shape-inside:url(#rect560);display:inline;fill:#f0d0c2;fill-opacity:1;stroke-width:0.999999;-inkscape-stroke:none;stop-color:#000000"><tspan
         x="-35.066406"
         y="-71.299614"
         id="tspan2952"><tspan
           style="fill:#f2f2f2"
           id="tspan2950">https://github.com/adamko-dev/kotlinx-serialization-typescript-generator</tspan></tspan></text>
  </g>
</svg>
