<?xml version="1.0" encoding="UTF-8" standalone="no"?>
<!-- Created with Inkscape (http://www.inkscape.org/) -->

<svg
   width="480"
   height="480"
   viewBox="0 0 127 127"
   version="1.1"
   id="svg5"
   inkscape:version="1.2.1 (9c6d41e4, 2022-07-14)"
   sodipodi:docname="logo.svg"
   xmlns:inkscape="http://www.inkscape.org/namespaces/inkscape"
   xmlns:sodipodi="http://sodipodi.sourceforge.net/DTD/sodipodi-0.dtd"
   xmlns="http://www.w3.org/2000/svg"
   xmlns:svg="http://www.w3.org/2000/svg">
  <sodipodi:namedview
     id="namedview7"
     pagecolor="#505050"
     bordercolor="#eeeeee"
     borderopacity="1"
     inkscape:showpageshadow="0"
     inkscape:pageopacity="0"
     inkscape:pagecheckerboard="0"
     inkscape:deskcolor="#505050"
     inkscape:document-units="px"
     showgrid="false"
     inkscape:zoom="1.4931883"
     inkscape:cx="202.25179"
     inkscape:cy="239.42058"
     inkscape:window-width="2006"
     inkscape:window-height="1227"
     inkscape:window-x="0"
     inkscape:window-y="25"
     inkscape:window-maximized="0"
     inkscape:current-layer="layer1" />
  <defs
     id="defs2">
    <rect
       x="-35.067081"
       y="-80.153328"
       width="735.69304"
       height="104.48559"
       id="rect560" />
    <rect
       x="38.61544"
       y="401.99661"
       width="320.09365"
       height="109.57568"
       id="rect4234" />
  </defs>
  <g
     inkscape:label="Layer 1"
     inkscape:groupmode="layer"
     id="layer1">
    <rect
       style="fill:#f9f9f9;fill-opacity:1;stroke-width:0.252995"
       id="rect4022"
       width="127"
       height="127"
       x="0"
       y="0"
       ry="0"
       rx="0" />
    <g
       id="g4940"
       transform="translate(1.6994665,0.31710318)">
      <g
         id="g4901">
        <path
           style="fill:#554994;stroke-width:0.31049;-inkscape-stroke:none;stop-color:#000000"
           id="path4857"
           d="m 5.8744431,41.880558 c 0.568571,-0.01891 1.1371428,-0.03782 1.7057015,-0.05674 1.0076218,-0.03352 2.0152443,-0.06703 3.0228664,-0.100552 1.493728,-0.01304 2.987705,-0.002 4.48156,-0.0042 1.863554,-0.0034 3.726829,-0.03032 5.589989,-0.05952 2.249969,-0.03576 4.500803,-0.01677 6.751221,-0.01939 2.464502,0.0054 4.928439,-0.04189 7.392883,-0.03787 2.474969,0.01149 4.949785,0.02848 7.424644,0.0765 2.687948,0.06293 5.376185,0.079 8.064281,0.09206 2.561544,0.01051 5.122992,0.0049 7.684399,-0.004 2.112277,-0.007 4.224479,-0.02193 6.336617,-0.0408 1.981008,-0.01649 3.961753,-0.0485 5.942423,-0.08297 1.653135,-0.02963 3.30616,-0.06376 4.959154,-0.09846 1.108464,0.06929 2.65446,-34.3045404 1.545998,-34.3738338 v 0 c -1.653007,0.034694 -3.306033,0.068808 -4.959155,0.098462 -1.980683,0.034487 -3.961426,0.066485 -5.942435,0.082972 -2.112138,0.018878 -4.224328,0.03383 -6.336618,0.040799 -2.561394,0.00888 -5.122842,0.014477 -7.684385,0.00397 -2.688109,-0.013052 -5.376334,-0.029125 -8.064283,-0.092056 -2.47487,-0.048013 -4.949686,-0.065017 -7.424655,-0.076496 -2.464444,-0.00401 -4.928369,0.043264 -7.392884,0.037871 -2.250405,0.00261 -4.501239,-0.01637 -6.75122,0.019387 -1.863161,0.029187 -3.726435,0.056112 -5.58999,0.059516 -1.493842,0.00219 -2.98782,-0.00881 -4.481548,0.00421 -1.007621,0.033517 -2.015243,0.067035 -3.0228652,0.1005522 C 8.557571,7.4688987 7.9889998,7.4878115 7.4204402,7.506724 6.3119779,7.437429 4.7659922,41.811263 5.8744431,41.880558 Z" />
        <path
           style="fill:#f675a8;stroke-width:0.302123;-inkscape-stroke:none;stop-color:#000000"
           id="path4859"
           d="m 5.773395,79.733553 c 0.8583585,-0.01094 1.7167168,-0.02187 2.5750753,-0.03281 1.8799977,-0.02395 3.7599947,-0.04791 5.6399927,-0.07186 2.321522,-0.05093 4.643553,-0.01865 6.965384,0.0034 2.396379,0.01862 4.792531,0.03274 7.188615,0.08839 2.82843,0.07344 5.657332,0.113001 8.486196,0.141709 3.307793,0.02925 6.61563,0.04249 9.923443,0.05032 3.091099,0.0065 6.182192,0.0046 9.273269,0.0013 2.442122,-0.0023 4.884249,-0.0071 7.326352,-0.01274 1.889749,-0.0043 3.779489,-0.0101 5.669216,-0.01785 1.761131,-0.0073 3.522222,-0.01855 5.283315,-0.03063 0.281132,-0.0019 0.562272,-0.0041 0.843416,-0.0059 1.052597,0.09223 3.2189,-34.08734 2.166302,-34.179565 v 0 c -0.281131,0.0019 -0.562271,0.0041 -0.843415,0.0059 -1.761081,0.01207 -3.522185,0.02335 -5.283305,0.03063 -1.889726,0.0078 -3.779467,0.01357 -5.669215,0.01785 -2.442115,0.0056 -4.884229,0.01042 -7.326353,0.01274 -3.091075,0.0033 -6.182168,0.0052 -9.273278,-0.0013 -3.307813,-0.0078 -6.61564,-0.02107 -9.923433,-0.05032 -2.828876,-0.0287 -5.657766,-0.06828 -8.486196,-0.141708 -2.396083,-0.05565 -4.792236,-0.06977 -7.188615,-0.08839 -2.321831,-0.02201 -4.643861,-0.05431 -6.965384,-0.0034 -1.880008,0.02395 -3.760006,0.04791 -5.640004,0.07186 -0.8583585,0.01094 -1.7167168,0.02187 -2.5750751,0.03281 C 6.8871004,45.46176 4.7207975,79.641327 5.773395,79.733553 Z" />
        <path
           style="fill:#f29393;stroke-width:0.291493;-inkscape-stroke:none;stop-color:#000000"
           id="path4861"
           d="m 5.8406812,118.48326 c 1.2962823,-0.0414 2.5925751,-0.0828 3.8888573,-0.12417 3.0130915,-0.0713 6.0279635,-0.0115 9.0419085,0.0253 3.528447,0.0393 7.056843,0.0468 10.58517,0.0517 3.050027,0.002 6.099962,-0.006 9.149799,-0.0232 2.733426,-0.0246 5.467413,0.0153 8.201116,0.0333 2.807759,0.0152 5.615311,0.002 8.422749,-0.0186 2.71302,-0.021 5.425854,-0.0544 8.138648,-0.0898 2.284125,-0.0294 4.568149,-0.0643 6.852071,-0.10403 1.829782,-0.033 3.659456,-0.0707 5.489122,-0.10862 1.025454,0.0684 2.490698,-32.674417 1.465255,-32.742813 v 0 c -1.829662,0.03808 -3.659339,0.07565 -5.489123,0.108643 -2.283922,0.03967 -4.567955,0.07464 -6.852081,0.10403 -2.712792,0.03539 -5.425628,0.06878 -8.138648,0.08976 -2.807439,0.02029 -5.614977,0.03381 -8.422738,0.01859 -2.733714,-0.01803 -5.467689,-0.05783 -8.201126,-0.0333 -3.049824,0.01761 -6.099771,0.02574 -9.14979,0.02324 C 27.293545,85.68839 23.765149,85.6809 20.236702,85.64157 17.222746,85.60481 14.207889,85.5451 11.194783,85.61631 9.8985003,85.6577 8.6022183,85.69909 7.3059362,85.740474 6.2804821,85.672084 4.8152379,118.41488 5.8406812,118.48327 Z" />
      </g>
      <path
         style="fill:#f0d0c2;stroke-width:0.25074;-inkscape-stroke:none;stop-color:#000000"
         id="path4865"
         d="m 82.622432,7.4754758 c 0.03158,0.9674605 0.06315,1.9349284 0.09473,2.9023892 0.07036,2.278276 0.160698,4.555946 0.206818,6.834928 0.05065,2.78145 0.01061,5.564995 -0.0467,8.348518 -0.11133,3.007354 -0.20627,6.014473 -0.269663,9.0213 -0.06482,3.313825 -0.08472,6.626923 -0.09558,9.939806 -0.0054,3.208195 0.01088,6.415929 0.02981,9.623595 0.01632,2.852671 0.04846,5.704966 0.08746,8.557092 0.03949,2.884941 0.09498,5.769467 0.153001,8.653916 0.06107,2.782124 0.129206,5.563954 0.144991,8.347226 0.02618,2.656606 0.0073,5.314022 -0.02256,7.971724 -0.02833,2.473235 -0.04772,4.946306 -0.06375,7.419316 0.0052,2.0474 -0.03034,4.095336 -0.0776,6.143574 -0.047,1.95039 -0.07546,3.90052 -0.103549,5.85061 -0.02278,1.7489 -0.03234,3.49747 -0.07203,5.24662 -0.0715,1.96732 -0.163279,3.9348 -0.249637,5.90224 -0.08558,0.70707 35.076137,1.35907 35.161747,0.65199 v 0 c 0.0864,-1.96743 0.17814,-3.9349 0.24964,-5.90223 0.0397,-1.74916 0.0492,-3.49772 0.072,-5.24662 0.0281,-1.9501 0.0565,-3.90021 0.10355,-5.8506 0.0473,-2.048258 0.0829,-4.096198 0.0776,-6.143587 0.016,-2.473012 0.0354,-4.946089 0.0637,-7.419317 0.0298,-2.6577 0.0487,-5.315115 0.0226,-7.971725 -0.0159,-2.783267 -0.0839,-5.565101 -0.14499,-8.347225 -0.058,-2.884456 -0.11356,-5.768975 -0.153,-8.653916 -0.039,-2.852128 -0.0711,-5.704428 -0.0875,-8.557092 -0.019,-3.207666 -0.0352,-6.415408 -0.0298,-9.623594 0.0108,-3.31289 0.0307,-6.625989 0.0956,-9.939807 0.0634,-3.006835 0.15834,-6.013945 0.26966,-9.021306 0.0573,-2.783523 0.0973,-5.567061 0.0467,-8.348511 -0.0459,-2.278991 -0.13671,-4.556645 -0.20677,-6.83493 -0.0316,-0.967468 -0.0632,-1.9349286 -0.0947,-2.9023964 C 117.8698,7.420386 82.708075,6.7683962 82.622469,7.4754747 Z" />
    </g>
    <text
       xml:space="preserve"
       transform="matrix(0,0.31288665,-0.31288665,0,58.12812,22.454195)"
       id="text558"
       style="font-size:10px;font-family:Futura;-inkscape-font-specification:Futura;white-space:pre;shape-inside:url(#rect560);display:inline;fill:#f0d0c2;fill-opacity:1;stroke-width:0.999999;-inkscape-stroke:none;stop-color:#000000"><tspan
         x="-35.066406"
         y="-71.299614"
         id="tspan1192"><tspan
           style="fill:#f2f2f2"
           id="tspan1190">https://github.com/adamko-dev/kotlinx-serialization-typescript-generator</tspan></tspan></text>
  </g>
</svg>
